<?xml version="1.0" standalone="no"?><!DOCTYPE svg PUBLIC "-//W3C//DTD SVG 1.1//EN" "http://www.w3.org/Graphics/SVG/1.1/DTD/svg11.dtd"><svg t="1505312720224" class="icon" style="" viewBox="0 0 1024 1024" version="1.1" xmlns="http://www.w3.org/2000/svg" p-id="3812" xmlns:xlink="http://www.w3.org/1999/xlink" width="200" height="200"><defs><style type="text/css">@font-face { font-family: uc-nexus-iconfont; src: url("chrome-extension://pogijhnlcfmcppgimcaccdkmbedjkmhi/res/font_9qmmi8b8jsxxbt9.woff") format("woff"), url("chrome-extension://pogijhnlcfmcppgimcaccdkmbedjkmhi/res/font_9qmmi8b8jsxxbt9.ttf") format("truetype"); }
</style></defs><path d="M903.68 120.32h-60.416v60.416h60.416V120.32zM1024 0h-301.056v301.056H1024V0z m-60.416 241.152h-180.736V60.416h180.736v180.736zM120.32 180.736h60.416V120.32H120.32v60.416zM0 301.056h301.056V0H0v301.056z m60.416-240.64h180.736v180.736H60.416V60.416z m843.264 782.848h-60.416v60.416h60.416v-60.416z m120.32-120.32h-301.056V1024H1024v-301.056z m-60.416 240.64h-180.736v-180.736h180.736v180.736zM542.208 180.736h60.416V120.32h60.416V60.416h-60.416V0H421.888v60.416h120.32v60.416H481.792v120.32h60.416V180.736zM481.792 241.152H421.888v60.416h60.416V241.152h-0.512zM361.472 180.736v60.416h60.416V180.736H361.472z m0-60.416h60.416V60.416H361.472v59.904zM241.152 421.888H180.736v60.416h60.416V421.888z m240.64-60.416v60.416h180.736V361.472h-60.416V241.152h-60.416v120.32H481.792zM421.888 301.056H361.472v120.32h60.416V301.056zM301.056 361.472H241.152v60.416h60.416V361.472h-0.512z m-240.64 0v60.416h120.32V361.472H60.416z m301.056 120.32V421.888H301.056v60.416h60.416v-0.512z m-120.32 60.416h60.416V481.792H241.152v60.416zM0 481.792h60.416V421.888H0v59.904z m0 60.416v60.416h60.416v-60.416H0z m60.416 59.904v60.416h60.416v-60.416H60.416zM0 722.944v120.32h60.416v-60.416h60.416v-60.416H0v0.512z m120.32 120.32H240.64v-60.416H120.32v60.416z m662.528-301.056V481.792h-60.416v60.416h60.416z m-421.376 301.056H301.056v60.416h60.416v-60.416z m-60.416 60.416H0V1024h60.416v-60.416h60.416V1024h60.416v-60.416h60.416V1024h180.736v-60.416H301.056v-59.904z m241.152 120.32v-60.416H481.792V1024h60.416z m59.904 0h60.416v-60.416h-60.416V1024z m0-421.888h120.32v-60.416h-60.416V481.792h-60.416v60.416h-60.416v180.736h120.32v-60.416h-60.416v-60.416h1.024z m-180.224 361.472h60.416v-60.416H421.888v60.416z m-120.832-240.64H241.152V783.36h120.32v-120.32H301.056v59.904z m-59.904-180.736H180.736V481.792H120.32v120.32h60.416v60.416H120.32v60.416H240.64v-180.736h0.512z m240.64 301.056v60.416h60.416v-60.416h60.416v60.416h60.416V783.36H481.792v-120.32H421.888v180.736h59.904v-0.512z m-180.736-241.152h60.416v60.416h60.416v-60.416h60.416v-60.416H301.056v60.416z m120.832-120.32h60.416V421.888H421.888v59.904z m59.904 0v60.416h60.416V481.792H481.792z m241.152 0V421.888h-60.416v60.416h60.416v-0.512z m59.904-120.32h-60.416v60.416h60.416V361.472z m60.416 0v120.32h60.416V361.472h-60.416z m0 240.64v60.416h60.416v-60.416h60.416v-60.416H1024V421.888h-60.416v60.416h-60.416V542.72h-120.32v60.416h60.416v-1.024z m-120.32 60.416H783.36v-60.416h-60.416v60.416z m301.056 0v-60.416h-60.416v60.416H1024z" p-id="3813"></path></svg>